<svg width="20" height="20" viewBox="0 0 20 20" fill="none" xmlns="http://www.w3.org/2000/svg">
<path fill-rule="evenodd" clip-rule="evenodd" d="M6.43339 10.4417C6.31635 10.3245 6.25061 10.1656 6.25061 10C6.25061 9.83437 6.31635 9.67552 6.43339 9.55833L12.6834 3.30833C12.7406 3.24692 12.8096 3.19767 12.8863 3.16351C12.9629 3.12935 13.0457 3.11098 13.1296 3.1095C13.2135 3.10802 13.2969 3.12346 13.3747 3.15489C13.4525 3.18633 13.5232 3.23311 13.5826 3.29246C13.6419 3.35181 13.6887 3.42251 13.7202 3.50033C13.7516 3.57815 13.767 3.66151 13.7656 3.74543C13.7641 3.82935 13.7457 3.91211 13.7115 3.98878C13.6774 4.06544 13.6281 4.13444 13.5667 4.19166L7.75839 10L13.5667 15.8083C13.6281 15.8655 13.6774 15.9345 13.7115 16.0112C13.7457 16.0879 13.7641 16.1706 13.7656 16.2546C13.767 16.3385 13.7516 16.4218 13.7202 16.4997C13.6887 16.5775 13.6419 16.6482 13.5826 16.7075C13.5232 16.7669 13.4525 16.8137 13.3747 16.8451C13.2969 16.8765 13.2135 16.892 13.1296 16.8905C13.0457 16.889 12.9629 16.8706 12.8863 16.8365C12.8096 16.8023 12.7406 16.7531 12.6834 16.6917L6.43339 10.4417Z" fill="#404040"/>
</svg>
